<svg aria-hidden="true" style="position: absolute; width: 0; height: 0; overflow: hidden;" version="1.1" xmlns="http://www.w3.org/2000/svg" xmlns:xlink="http://www.w3.org/1999/xlink">
<defs>
<symbol id="icon-starfull" viewBox="0 0 34 32">
<path fill="#edd501" style="fill: var(--color1, #edd501)" d="M14.697 1.228c0.533-1.637 2.85-1.637 3.381 0l2.649 8.156c0.239 0.718 0.905 1.227 1.69 1.227 0.001 0 0.002 0 0.002 0h8.574c1.723 0 2.439 2.204 1.045 3.218l-6.937 5.040c-0.447 0.327-0.734 0.849-0.734 1.439 0 0.196 0.032 0.385 0.090 0.561l-0.004-0.013 2.649 8.155c0.533 1.639-1.34 3.001-2.734 1.988l-6.937-5.040c-0.289-0.212-0.652-0.34-1.045-0.34s-0.756 0.127-1.050 0.343l0.005-0.003-6.937 5.040c-1.394 1.013-3.268-0.35-2.736-1.988l2.649-8.155c0.055-0.164 0.087-0.353 0.087-0.55 0-0.589-0.286-1.111-0.727-1.434l-0.005-0.003-6.937-5.040c-1.394-1.013-0.676-3.218 1.045-3.218h8.574c0 0 0 0 0 0 0.785 0 1.451-0.509 1.687-1.214l0.004-0.013z"></path>
</symbol>
<symbol id="icon-starempty" viewBox="0 0 34 32">
<path fill="none" stroke="#edd501" stroke-width="1.7778" stroke-miterlimit="4" stroke-linecap="butt" stroke-linejoin="miter" style="stroke: var(--color1, #edd501)" d="M15.541 1.504c0.119-0.361 0.453-0.617 0.846-0.617s0.728 0.256 0.844 0.611l0.002 0.006 2.649 8.155c0.358 1.079 1.357 1.843 2.535 1.844h8.574c0.001 0 0.003 0 0.004 0 0.491 0 0.889 0.398 0.889 0.889 0 0.296-0.145 0.558-0.368 0.72l-0.003 0.002-6.939 5.040c-0.668 0.491-1.097 1.273-1.097 2.156 0 0.294 0.048 0.578 0.136 0.842l-0.005-0.019 2.649 8.156c0.027 0.082 0.043 0.176 0.043 0.274 0 0.491-0.398 0.889-0.889 0.889-0.196 0-0.377-0.063-0.524-0.171l0.003 0.002-6.935-5.042c-0.434-0.319-0.979-0.51-1.568-0.51s-1.134 0.191-1.575 0.515l0.007-0.005-6.937 5.040c-0.145 0.107-0.327 0.171-0.524 0.171-0.491 0-0.889-0.398-0.889-0.889 0-0.099 0.016-0.193 0.046-0.282l-0.002 0.006 2.652-8.156c0.082-0.246 0.13-0.528 0.13-0.822 0-0.884-0.43-1.667-1.091-2.152l-0.007-0.005-6.939-5.040c-0.225-0.163-0.37-0.426-0.37-0.722 0-0.491 0.398-0.889 0.889-0.889 0.001 0 0.003 0 0.004 0h8.574c0 0 0.001 0 0.001 0 1.178 0 2.177-0.764 2.53-1.823l0.005-0.019z"></path>
</symbol>
</defs>
</svg>
