<svg aria-hidden="true" style="position: absolute; width: 0; height: 0; overflow: hidden;" version="1.1" xmlns="http://www.w3.org/2000/svg" xmlns:xlink="http://www.w3.org/1999/xlink">
<defs>
<symbol id="icon-rate5" viewBox="0 0 181 32">
<path fill="#edd501" style="fill: var(--color1, #edd501)" d="M14.732 3.903c0.4-1.228 2.137-1.228 2.536 0l2.025 6.232c0.179 0.538 0.678 0.92 1.267 0.92h6.553c1.292 0 1.828 1.653 0.784 2.413l-5.301 3.851c-0.335 0.245-0.549 0.637-0.549 1.078 0 0.147 0.024 0.289 0.068 0.422l-0.003-0.009 2.024 6.232c0.4 1.229-1.007 2.251-2.051 1.491l-5.301-3.851c-0.217-0.159-0.489-0.255-0.784-0.255s-0.567 0.096-0.788 0.257l0.004-0.003-5.301 3.851c-1.044 0.76-2.451-0.263-2.051-1.491l2.024-6.232c0.041-0.123 0.065-0.265 0.065-0.412 0-0.442-0.215-0.833-0.546-1.076l-0.004-0.003-5.301-3.851c-1.044-0.76-0.507-2.413 0.784-2.413h6.552c0 0 0 0 0 0 0.589 0 1.088-0.381 1.265-0.911l0.003-0.009zM164.065 3.903c0.399-1.228 2.137-1.228 2.536 0l2.025 6.232c0.179 0.539 0.679 0.92 1.268 0.92 0 0 0 0 0 0h6.552c1.292 0 1.828 1.653 0.784 2.413l-5.301 3.851c-0.335 0.245-0.549 0.637-0.549 1.078 0 0.147 0.024 0.289 0.068 0.422l-0.003-0.009 2.024 6.232c0.4 1.229-1.007 2.251-2.051 1.491l-5.301-3.851c-0.217-0.159-0.489-0.255-0.784-0.255s-0.567 0.096-0.788 0.257l0.004-0.003-5.301 3.851c-1.044 0.76-2.451-0.263-2.051-1.491l2.024-6.232c0.041-0.123 0.065-0.265 0.065-0.412 0-0.442-0.215-0.833-0.546-1.076l-0.004-0.003-5.301-3.851c-1.044-0.76-0.508-2.413 0.784-2.413h6.552c0 0 0 0 0 0 0.589 0 1.088-0.381 1.265-0.911l0.003-0.009zM126.732 3.903c0.4-1.228 2.137-1.228 2.536 0l2.025 6.232c0.179 0.538 0.678 0.92 1.267 0.92h6.553c1.292 0 1.828 1.653 0.784 2.413l-5.301 3.851c-0.335 0.245-0.549 0.637-0.549 1.078 0 0.147 0.024 0.289 0.068 0.422l-0.003-0.009 2.024 6.232c0.4 1.229-1.007 2.251-2.051 1.491l-5.301-3.851c-0.217-0.159-0.489-0.255-0.784-0.255s-0.567 0.096-0.788 0.257l0.004-0.003-5.301 3.851c-1.044 0.76-2.451-0.263-2.051-1.491l2.024-6.232c0.041-0.123 0.065-0.265 0.065-0.412 0-0.442-0.215-0.833-0.546-1.076l-0.004-0.003-5.301-3.851c-1.045-0.76-0.507-2.413 0.784-2.413h6.552c0 0 0 0 0 0 0.589 0 1.088-0.381 1.265-0.911l0.003-0.009zM89.399 3.903c0.4-1.228 2.137-1.228 2.536 0l2.025 6.232c0.179 0.538 0.678 0.92 1.267 0.92h6.553c1.292 0 1.829 1.653 0.784 2.413l-5.301 3.851c-0.335 0.245-0.549 0.637-0.549 1.078 0 0.147 0.024 0.289 0.068 0.422l-0.003-0.009 2.024 6.232c0.4 1.229-1.007 2.251-2.051 1.491l-5.301-3.851c-0.217-0.159-0.489-0.255-0.784-0.255s-0.567 0.096-0.788 0.257l0.004-0.003-5.301 3.851c-1.044 0.76-2.451-0.263-2.051-1.491l2.024-6.232c0.041-0.123 0.065-0.265 0.065-0.412 0-0.442-0.215-0.833-0.546-1.076l-0.004-0.003-5.301-3.851c-1.044-0.76-0.507-2.413 0.784-2.413h6.552c0 0 0 0 0 0 0.589 0 1.088-0.381 1.265-0.911l0.003-0.009zM52.065 3.903c0.4-1.228 2.137-1.228 2.536 0l2.025 6.232c0.179 0.538 0.678 0.92 1.267 0.92h6.553c1.292 0 1.828 1.653 0.784 2.413l-5.301 3.851c-0.335 0.245-0.549 0.637-0.549 1.078 0 0.147 0.024 0.289 0.068 0.422l-0.003-0.009 2.024 6.232c0.4 1.229-1.007 2.251-2.051 1.491l-5.301-3.851c-0.217-0.159-0.489-0.255-0.784-0.255s-0.567 0.096-0.788 0.257l0.004-0.003-5.3 3.851c-1.045 0.76-2.452-0.263-2.053-1.491l2.027-6.232c0.041-0.123 0.065-0.264 0.065-0.411 0-0.442-0.215-0.834-0.547-1.077l-0.004-0.003-5.301-3.851c-1.045-0.76-0.507-2.413 0.784-2.413h6.552c0 0 0 0 0 0 0.589 0 1.088-0.381 1.265-0.911l0.003-0.009z"></path>
</symbol>
<symbol id="icon-rate4" viewBox="0 0 180 32">
<path fill="#edd501" style="fill: var(--color1, #edd501)" d="M14.565 3.903c0.4-1.228 2.137-1.228 2.536 0l1.987 6.116c0.179 0.539 0.679 0.921 1.268 0.921 0 0 0.001 0 0.001 0h6.431c1.292 0 1.829 1.653 0.784 2.413l-5.203 3.78c-0.335 0.245-0.55 0.637-0.55 1.079 0 0.147 0.024 0.289 0.068 0.421l-0.003-0.009 1.987 6.116c0.4 1.228-1.005 2.251-2.051 1.491l-5.203-3.78c-0.217-0.159-0.489-0.255-0.784-0.255s-0.567 0.096-0.788 0.257l0.004-0.003-5.203 3.78c-1.045 0.76-2.451-0.263-2.052-1.491l1.987-6.116c0.041-0.123 0.065-0.265 0.065-0.412 0-0.442-0.215-0.833-0.546-1.076l-0.004-0.003-5.203-3.781c-1.045-0.759-0.507-2.412 0.784-2.412h6.431c0 0 0 0 0 0 0.589 0 1.088-0.381 1.265-0.911l0.003-0.009z"></path>
<path fill="none" stroke="#edd501" stroke-width="1.3333" stroke-miterlimit="4" stroke-linecap="butt" stroke-linejoin="miter" style="stroke: var(--color1, #edd501)" d="M162.977 4.109c0.090-0.27 0.339-0.461 0.634-0.461s0.544 0.191 0.633 0.456l0.001 0.005 1.987 6.116c0.269 0.809 1.018 1.381 1.902 1.381 0 0 0.001 0 0.001 0h6.431c0 0 0.001 0 0.001 0 0.368 0 0.667 0.298 0.667 0.667 0 0.221-0.108 0.417-0.274 0.539l-0.002 0.001-5.203 3.78c-0.502 0.368-0.825 0.955-0.825 1.618 0 0.221 0.036 0.433 0.102 0.632l-0.004-0.014 1.988 6.117c0.021 0.061 0.032 0.132 0.032 0.205 0 0.368-0.298 0.667-0.667 0.667-0.147 0-0.283-0.048-0.393-0.128l0.002 0.001-5.204-3.78c-0.325-0.239-0.734-0.382-1.175-0.382s-0.85 0.143-1.181 0.386l0.006-0.004-5.204 3.78c-0.108 0.079-0.244 0.127-0.391 0.127-0.368 0-0.667-0.298-0.667-0.667 0-0.073 0.012-0.144 0.034-0.21l-0.001 0.005 1.988-6.117c0.062-0.185 0.098-0.397 0.098-0.618 0-0.663-0.322-1.25-0.819-1.614l-0.006-0.004-5.203-3.78c-0.168-0.123-0.276-0.319-0.276-0.54 0-0.368 0.298-0.667 0.667-0.667 0 0 0.001 0 0.001 0h6.431c0 0 0 0 0.001 0 0.883 0 1.633-0.573 1.898-1.367l0.004-0.014z"></path>
<path fill="#edd501" style="fill: var(--color1, #edd501)" d="M125.399 3.903c0.4-1.228 2.137-1.228 2.536 0l1.987 6.116c0.179 0.539 0.679 0.921 1.268 0.921 0 0 0.001 0 0.001 0h6.431c1.292 0 1.829 1.653 0.784 2.413l-5.203 3.78c-0.335 0.245-0.55 0.637-0.55 1.079 0 0.147 0.024 0.289 0.068 0.421l-0.003-0.009 1.988 6.116c0.399 1.228-1.007 2.251-2.052 1.491l-5.203-3.78c-0.217-0.159-0.489-0.255-0.784-0.255s-0.567 0.096-0.788 0.257l0.004-0.003-5.203 3.78c-1.045 0.76-2.451-0.263-2.052-1.491l1.987-6.116c0.041-0.123 0.065-0.265 0.065-0.412 0-0.442-0.215-0.833-0.546-1.076l-0.004-0.003-5.203-3.781c-1.045-0.759-0.507-2.412 0.784-2.412h6.431c0 0 0 0 0 0 0.589 0 1.088-0.381 1.265-0.911l0.003-0.009zM88.453 3.903c0.4-1.228 2.137-1.228 2.537 0l1.987 6.116c0.179 0.539 0.679 0.921 1.268 0.921h6.432c1.292 0 1.828 1.653 0.784 2.413l-5.204 3.78c-0.335 0.245-0.549 0.637-0.549 1.078 0 0.147 0.024 0.289 0.068 0.422l-0.003-0.009 1.987 6.116c0.4 1.228-1.007 2.251-2.051 1.491l-5.204-3.78c-0.217-0.159-0.489-0.254-0.783-0.254s-0.567 0.095-0.787 0.257l0.004-0.003-5.203 3.78c-1.045 0.76-2.452-0.263-2.053-1.491l1.988-6.116c0.041-0.123 0.065-0.265 0.065-0.412 0-0.442-0.215-0.833-0.546-1.076l-0.004-0.003-5.203-3.781c-1.045-0.759-0.508-2.412 0.783-2.412h6.433c0 0 0 0 0 0 0.589 0 1.088-0.381 1.265-0.911l0.003-0.009zM51.509 3.903c0.4-1.228 2.137-1.228 2.536 0l1.988 6.116c0.179 0.539 0.679 0.921 1.268 0.921h6.432c1.291 0 1.828 1.653 0.783 2.413l-5.203 3.78c-0.335 0.245-0.549 0.637-0.549 1.078 0 0.147 0.024 0.289 0.068 0.422l-0.003-0.009 1.987 6.116c0.4 1.228-1.007 2.251-2.052 1.491l-5.203-3.78c-0.217-0.159-0.489-0.254-0.783-0.254s-0.566 0.095-0.787 0.257l0.004-0.003-5.204 3.78c-1.044 0.76-2.451-0.263-2.052-1.491l1.988-6.116c0.041-0.123 0.065-0.265 0.065-0.412 0-0.442-0.215-0.833-0.546-1.076l-0.004-0.003-5.204-3.781c-1.044-0.759-0.507-2.412 0.784-2.412h6.432c0.588-0 1.087-0.382 1.264-0.911l0.003-0.009z"></path>
</symbol>
</defs>
</svg>
